<svg width="144.773" height="144.773" xmlns="http://www.w3.org/2000/svg" xmlns:xlink="http://www.w3.org/1999/xlink" xml:space="preserve" version="1.1">
 <g>
  <title>Layer 1</title>
  <g id="svg_1">
   <circle id="svg_2" fill="#f5f5f5" r="72.386" cy="72.386" cx="72.387"/>
   <g id="svg_3">
    <defs>
     <circle r="72.386" cy="72.386" cx="72.387" id="SVGID_1_"/>
    </defs>
    <clipPath id="SVGID_2_">
     <use id="svg_4" xlink:href="#SVGID_1_"/>
    </clipPath>
    <g id="svg_5" clip-path="url(#SVGID_2_)">
     <g id="svg_6">
      <path id="svg_7" fill="#fecdb6" d="m107.053,116.94c-4.666,-8.833 -34.666,-14.376 -34.666,-14.376s-30,5.543 -34.666,14.376c-3.449,12.258 -6.334,27.833 -6.334,27.833l41,0l41,0c0,0 -1.949,-16.7 -6.334,-27.833z"/>
      <path id="svg_8" fill="#fdb797" d="m72.387,102.564c0,0 30,5.543 34.666,14.376c4.386,11.133 6.334,27.833 6.334,27.833l-41,0l0,-42.209z"/>
      <rect id="svg_9" fill="#fecdb6" height="27.336" width="16.334" y="84.606" x="64.22"/>
      <rect id="svg_10" fill="#fdb797" height="27.336" width="8.167" y="84.606" x="72.387"/>
      <path id="svg_11" fill="#DDAC8C" opacity="0.1" d="m64.22,97.273c1.469,4.217 7.397,6.634 11.751,6.634c1.575,0 3.107,-0.264 4.583,-0.747l0,-18.554l-16.334,0l0,12.667z"/>
      <path id="svg_12" fill="#fecdb6" d="m93.387,67.357c0,-17.074 -9.402,-26.783 -21,-26.783c-11.598,0 -21,9.709 -21,26.783c0,22.966 9.402,30.917 21,30.917c11.597,0 21,-8.908 21,-30.917z"/>
      <path id="svg_13" fill="#fdb797" d="m90.19,79.197c-3.807,-0.398 -6.377,-4.5 -5.732,-9.156c0.637,-4.66 4.242,-8.12 8.051,-7.724c3.805,0.396 6.371,4.496 5.729,9.156c-0.639,4.661 -4.241,8.118 -8.048,7.724z"/>
      <path id="svg_14" fill="#fecdb6" d="m46.685,71.474c-0.643,-4.66 1.924,-8.76 5.727,-9.156c3.81,-0.396 7.416,3.063 8.055,7.724c0.643,4.656 -1.93,8.758 -5.734,9.156c-3.808,0.393 -7.41,-3.064 -8.048,-7.724z"/>
      <path id="svg_15" fill="#fdb797" d="m93.15171,67.357c0,-17.074 -9.402,-26.783 -21,-26.783l0,57.7c11.597,0 21,-8.908 21,-30.917z"/>
     </g>
     <path id="svg_17" fill="#303030" d="m62.218,43.841c0,0 3.9,15.787 25.632,23.773c-2.044,-3.529 -2.415,-7.801 -2.415,-7.801s3.529,3.715 9.286,6.687c3.158,-6.314 6.873,-15.787 -1.485,-20.987c-8.358,-5.201 -28.232,-14.489 -31.018,-1.672z"/>
     <path id="svg_18" fill="#303030" d="m54.975,66.314c0,0 1.613,-18.023 8.328,-22.01c-5.728,-2.499 -14.457,5.108 -13.529,9.751c0.929,4.644 5.201,12.259 5.201,12.259z"/>
     <path id="svg_19" fill="#574b90" d="m107.053,116.94c-2.726,-5.158 -14.082,-9.191 -23.065,-11.656c-0.352,6.11 -5.402,10.96 -11.601,10.96c-6.198,0 -11.249,-4.85 -11.6,-10.96c-8.983,2.465 -20.34,6.498 -23.066,11.656c-3.449,12.258 -6.334,27.833 -6.334,27.833l41,0l41,0c0,0 -1.949,-16.7 -6.334,-27.833z"/>
    </g>
   </g>
  </g>
  <g id="svg_23"/>
  <g id="svg_24"/>
  <g id="svg_25"/>
  <g id="svg_26"/>
  <g id="svg_27"/>
  <g id="svg_28"/>
  <g id="svg_29"/>
  <g id="svg_30"/>
  <g id="svg_31"/>
  <g id="svg_32"/>
  <g id="svg_33"/>
  <g id="svg_34"/>
  <g id="svg_35"/>
  <g id="svg_36"/>
  <g id="svg_37"/>
 </g>
</svg>